<svg width="17" height="17" viewBox="0 0 17 17" fill="none" xmlns="http://www.w3.org/2000/svg">
<mask id="mask0_6_1985" style="mask-type:alpha" maskUnits="userSpaceOnUse" x="0" y="0" width="17" height="17">
<rect x="0.570801" y="0.258606" width="16" height="16" fill="#D9D9D9"/>
</mask>
<g mask="url(#mask0_6_1985)">
<path d="M8.57081 8.96111L5.18881 12.3433C5.09648 12.4355 4.98042 12.4827 4.84064 12.4849C4.70098 12.4871 4.58281 12.4398 4.48614 12.3433C4.38959 12.2466 4.34131 12.1295 4.34131 11.9919C4.34131 11.8544 4.38959 11.7373 4.48614 11.6406L7.86831 8.25861L4.48614 4.87661C4.39392 4.78428 4.3467 4.66823 4.34448 4.52845C4.34236 4.38878 4.38959 4.27061 4.48614 4.17395C4.58281 4.07739 4.69992 4.02911 4.83748 4.02911C4.97503 4.02911 5.09214 4.07739 5.18881 4.17395L8.57081 7.55611L11.9528 4.17395C12.0451 4.08172 12.1612 4.0345 12.301 4.03228C12.4406 4.03017 12.5588 4.07739 12.6555 4.17395C12.752 4.27061 12.8003 4.38773 12.8003 4.52528C12.8003 4.66284 12.752 4.77995 12.6555 4.87661L9.27331 8.25861L12.6555 11.6406C12.7477 11.7329 12.7949 11.849 12.7971 11.9888C12.7993 12.1284 12.752 12.2466 12.6555 12.3433C12.5588 12.4398 12.4417 12.4881 12.3041 12.4881C12.1666 12.4881 12.0495 12.4398 11.9528 12.3433L8.57081 8.96111Z" fill="#666666"/>
</g>
</svg>
